<svg xmlns="http://www.w3.org/2000/svg" width="24.733" height="15.739" viewBox="0 0 24.733 15.739"><defs><style>.a{fill:#fff;}</style></defs><path class="a" d="M18.363,14.245a3.373,3.373,0,1,0-3.373-3.373A3.359,3.359,0,0,0,18.363,14.245Zm-8.994,0A3.373,3.373,0,1,0,6,10.873,3.359,3.359,0,0,0,9.369,14.245Zm0,2.248c-2.619,0-7.869,1.315-7.869,3.935v2.811H17.239V20.428C17.239,17.809,11.989,16.494,9.369,16.494Zm8.994,0c-.326,0-.7.022-1.09.056a4.744,4.744,0,0,1,2.215,3.879v2.811h6.745V20.428C26.233,17.809,20.983,16.494,18.363,16.494Z" transform="translate(-1.5 -7.5)"/></svg>