<svg id="Avaliações" xmlns="http://www.w3.org/2000/svg" width="21.871" height="23.468" viewBox="0 0 21.871 23.468">
  <path id="Caminho_304" data-name="Caminho 304" d="M376.068,303.644a.5.5,0,0,0-.707,0l-1.3,1.295-.745-.746a.5.5,0,1,0-.707.707l1.1,1.1a.5.5,0,0,0,.707,0l1.649-1.649A.5.5,0,0,0,376.068,303.644Z" transform="translate(-368.218 -294.898)" fill="#fff"/>
  <path id="Caminho_305" data-name="Caminho 305" d="M376.068,307.644a.5.5,0,0,0-.707,0l-1.3,1.295-.745-.746a.5.5,0,1,0-.707.707l1.1,1.1a.5.5,0,0,0,.707,0l1.649-1.649A.5.5,0,0,0,376.068,307.644Z" transform="translate(-368.218 -294.898)" fill="#fff"/>
  <path id="Caminho_306" data-name="Caminho 306" d="M375.361,311.644l-1.3,1.295-.745-.746a.5.5,0,1,0-.707.707l1.1,1.1a.5.5,0,0,0,.707,0l1.649-1.649a.5.5,0,1,0-.707-.707Z" transform="translate(-368.218 -294.898)" fill="#fff"/>
  <path id="Caminho_307" data-name="Caminho 307" d="M385.394,313.8h0l-1.2,0a.251.251,0,0,0-.25.25v2.61H369.925v-15.22h3.991a.857.857,0,0,0,.847-.857v-3.979h9.176v1.21a.25.25,0,0,0,.25.25h1.2a.25.25,0,0,0,.25-.25v-2.067a.854.854,0,0,0-.843-.85H373.841a.82.82,0,0,0-.531.242l-4.839,4.836a.848.848,0,0,0-.253.615v16.925a.851.851,0,0,0,.85.85h15.725a.851.851,0,0,0,.851-.85v-3.467a.253.253,0,0,0-.25-.25ZM371.13,299.736l1.921-1.924v1.924Z" transform="translate(-368.218 -294.898)" fill="#fff"/>
  <path id="Caminho_308" data-name="Caminho 308" d="M389,298.417l-.007-.005a.861.861,0,0,0-.227-.083,2.08,2.08,0,0,0-2.749.885l-6.854,11.815a.732.732,0,0,0-.1.459l.249,2.505a.751.751,0,0,0,.742.679c.023,0,.046,0,.07,0a.693.693,0,0,0,.247-.063l2.252-1a.746.746,0,0,0,.353-.317l6.826-11.9A2.192,2.192,0,0,0,389,298.417Zm-.494,2.209-.013.029-.676,1.172-1.176-.689.688-1.177a.663.663,0,0,1,.563-.346.574.574,0,0,1,.1,0,.713.713,0,0,1,.268.1A.657.657,0,0,1,388.51,300.626Zm-1.433,2.5-4.851,8.464-1.217-.739,4.887-8.414Zm-5.646,9.591-1,.445-.111-1.105Z" transform="translate(-368.218 -294.898)" fill="#fff"/>
</svg>
