<svg id="Disciplinas" xmlns="http://www.w3.org/2000/svg" width="26.675" height="23.188" viewBox="0 0 26.675 23.188">
  <path id="Caminho_301" data-name="Caminho 301" d="M47.207,43.772a.566.566,0,0,0-.8-.02L34.777,54.8l-5.357-1.885v1.163l5.3,1.9a.565.565,0,0,0,.581-.122L47.186,44.572A.565.565,0,0,0,47.207,43.772Z" transform="translate(-20.933 -34.311)" fill="#fff" stroke="#fff" stroke-width="0.4"/>
  <path id="Caminho_302" data-name="Caminho 302" d="M18.37,26.914,30.253,15.622a.565.565,0,0,0-.2-.942L19.4,10.843a1.578,1.578,0,0,0-1.687.341S5.824,22.476,5.824,22.476a2.447,2.447,0,0,0-.581.917c-.592,1.579-.156,4.379,1.888,5.176l.243.087V27.037c-1.195-.613-1.28-2.2-.87-3.294.294-.784.5-.592.627-.544l10.658,3.838a.564.564,0,0,0,.581-.122Zm-1.532-11.4,1.89-1.8a.323.323,0,0,1,.332-.07l6.582,2.309a.117.117,0,0,1,.041.2l-1.893,1.8a.323.323,0,0,1-.332.07l-6.579-2.309a.117.117,0,0,1-.041-.2Z" transform="translate(-5 -10.731)" fill="#fff"/>
  <path id="Caminho_303" data-name="Caminho 303" d="M16.4,63.642v6.124l1.3-1.19,1.3,1.7V64.577c0-.62.768-.848.768-.848l-2.6-.935S16.4,62.966,16.4,63.642Z" transform="translate(-12.18 -47.084)" fill="#fff"/>
</svg>
