<svg xmlns="http://www.w3.org/2000/svg" width="23.583" height="18.866" viewBox="0 0 23.583 18.866"><defs><style>.a{fill:#fff;}</style></defs><path class="a" d="M0,8.254V18.276a.589.589,0,0,0,.59.59H3.537V7.075H1.179A1.179,1.179,0,0,0,0,8.254ZM13.265,6.485h-.884V5.011a.3.3,0,0,0-.295-.295H11.5a.3.3,0,0,0-.295.295V7.37a.3.3,0,0,0,.295.295h1.769a.3.3,0,0,0,.295-.295V6.78A.3.3,0,0,0,13.265,6.485Zm5.076-2.357L12.445.2a1.18,1.18,0,0,0-1.308,0l-5.9,3.931a1.179,1.179,0,0,0-.525.981V18.866H9.433V13.56a.589.589,0,0,1,.59-.59H13.56a.589.589,0,0,1,.59.59v5.306h4.717V5.11a1.179,1.179,0,0,0-.525-.981Zm-6.55,5.3a2.948,2.948,0,1,1,2.948-2.948A2.948,2.948,0,0,1,11.791,9.433ZM22.4,7.075H20.045V18.866h2.948a.589.589,0,0,0,.59-.59V8.254A1.179,1.179,0,0,0,22.4,7.075Z"/></svg>