<svg xmlns="http://www.w3.org/2000/svg" width="19.86" height="17.769" viewBox="0 0 19.86 17.769"><defs><style>.a{fill:#afafaf;}</style></defs><path class="a" d="M26.361,18.923H8.307a.834.834,0,0,0-.9.74v1.481a.834.834,0,0,0,.9.74H26.361a.834.834,0,0,0,.9-.74V19.663A.834.834,0,0,0,26.361,18.923Zm0-14.808H8.307a.834.834,0,0,0-.9.74V6.337a.834.834,0,0,0,.9.74H26.361a.834.834,0,0,0,.9-.74V4.856A.834.834,0,0,0,26.361,4.115Zm0,7.4H8.307a.834.834,0,0,0-.9.74V13.74a.834.834,0,0,0,.9.74H26.361a.834.834,0,0,0,.9-.74V12.26A.834.834,0,0,0,26.361,11.519Z" transform="translate(-7.404 -4.115)"/></svg>