<svg xmlns="http://www.w3.org/2000/svg" width="19.214" height="19.214" viewBox="0 0 19.214 19.214"><defs><style>.a{fill:#fff;}</style></defs><g transform="translate(-4 -7)"><g transform="translate(4 7)"><path class="a" d="M11.868,3.739A.741.741,0,0,0,11.129,3H3.739A.741.741,0,0,0,3,3.739v7.39a.741.741,0,0,0,.739.739h7.39a.741.741,0,0,0,.739-.739Z" transform="translate(-3 -3)"/><path class="a" d="M25.868,3.739A.741.741,0,0,0,25.129,3h-7.39A.741.741,0,0,0,17,3.739v7.39a.741.741,0,0,0,.739.739h7.39a.741.741,0,0,0,.739-.739Z" transform="translate(-6.654 -3)"/><path class="a" d="M17.739,25.868h7.39a.741.741,0,0,0,.739-.739v-7.39A.741.741,0,0,0,25.129,17h-7.39a.741.741,0,0,0-.739.739v7.39A.741.741,0,0,0,17.739,25.868Z" transform="translate(-6.654 -6.654)"/><path class="a" d="M11.129,17H3.739A.741.741,0,0,0,3,17.739v7.39a.741.741,0,0,0,.739.739h7.39a.741.741,0,0,0,.739-.739v-7.39A.741.741,0,0,0,11.129,17Z" transform="translate(-3 -6.654)"/></g></g></svg>