<svg xmlns="http://www.w3.org/2000/svg" width="27.435" height="17.787" viewBox="0 0 27.435 17.787">
  <g id="Turmas" transform="translate(0.85 0.85)">
    <path id="Icon_material-people" data-name="Icon material-people" d="M372.243,278.809a2.046,2.046,0,1,0-.017,0Zm-5.477,0a1.991,1.991,0,1,0-2.052-1.993v0a2.014,2.014,0,0,0,2.038,1.99Zm0,1.327c-1.595,0-4.792.776-4.792,2.322v1.659h9.585v-1.659c0-1.546-3.2-2.322-4.793-2.322Zm5.477,0c-.2,0-.426.013-.664.033a2.783,2.783,0,0,1,1.349,2.289v1.659h4.108v-1.659c0-1.546-3.2-2.322-4.793-2.322Zm5.483-1.327a2.046,2.046,0,1,0-.018,0Zm0,1.327c-.2,0-.426.013-.664.033a2.786,2.786,0,0,1,1.349,2.289v1.659h4.108v-1.659c0-1.546-3.2-2.322-4.793-2.322Z" transform="translate(-357.454 -267.18)" fill="#fff"/>
    <path id="Caminho_309" data-name="Caminho 309" d="M7067.331-3645.971h-2V-3659.2h25.734v10.513" transform="translate(-7065.33 3659.201)" fill="none" stroke="#fff" stroke-linecap="round" stroke-linejoin="round" stroke-width="1.7"/>
  </g>
</svg>
