<svg xmlns="http://www.w3.org/2000/svg" width="23.692" height="19.25" viewBox="0 0 23.692 19.25"><defs><style>.a{fill:#fff;}</style></defs><path class="a" d="M3.7,18.183H.74a.74.74,0,0,0-.74.74v2.962a.74.74,0,0,0,.74.74H3.7a.74.74,0,0,0,.74-.74V18.923A.74.74,0,0,0,3.7,18.183Zm0-14.808H.74a.74.74,0,0,0-.74.74V7.077a.74.74,0,0,0,.74.74H3.7a.74.74,0,0,0,.74-.74V4.115A.74.74,0,0,0,3.7,3.375Zm0,7.4H.74a.74.74,0,0,0-.74.74v2.962a.74.74,0,0,0,.74.74H3.7a.74.74,0,0,0,.74-.74V11.519A.74.74,0,0,0,3.7,10.779Zm19.25,8.144H8.144a.74.74,0,0,0-.74.74v1.481a.74.74,0,0,0,.74.74H22.952a.74.74,0,0,0,.74-.74V19.663A.74.74,0,0,0,22.952,18.923Zm0-14.808H8.144a.74.74,0,0,0-.74.74V6.337a.74.74,0,0,0,.74.74H22.952a.74.74,0,0,0,.74-.74V4.856A.74.74,0,0,0,22.952,4.115Zm0,7.4H8.144a.74.74,0,0,0-.74.74V13.74a.74.74,0,0,0,.74.74H22.952a.74.74,0,0,0,.74-.74V12.26A.74.74,0,0,0,22.952,11.519Z" transform="translate(0 -3.375)"/></svg>